<svg width="22" height="22" viewBox="0 0 22 22" fill="none" xmlns="http://www.w3.org/2000/svg">
<path d="M15.125 2.2915H18.7916C19.2979 2.2915 19.7083 2.70191 19.7083 3.20817V6.87486M19.7083 15.1249V18.7915C19.7083 19.2978 19.2979 19.7082 18.7916 19.7082H15.125M6.87496 19.7082H3.20829C2.70203 19.7082 2.29163 19.2978 2.29163 18.7915V15.1249M2.29163 6.87486V3.20817C2.29163 2.70191 2.70203 2.2915 3.20829 2.2915H6.87496" stroke="white" stroke-width="2.33333" stroke-linecap="round" stroke-linejoin="round"/>
<path d="M11 17.4168C14.0376 17.4168 16.5 14.544 16.5 11.0002C16.5 7.45633 14.0376 4.5835 11 4.5835C7.96244 4.5835 5.5 7.45633 5.5 11.0002C5.5 14.544 7.96244 17.4168 11 17.4168Z" stroke="white" stroke-width="2.33333"/>
<path d="M2.75 11H19.25" stroke="white" stroke-width="2.33333" stroke-linecap="round"/>
<path d="M9.19849 13.7983C9.77961 14.2279 10.3801 14.4427 10.9999 14.4427C11.6197 14.4427 12.2366 14.2279 12.8507 13.7983" stroke="white" stroke-width="2.33333" stroke-linecap="round"/>
</svg>
