<svg width="28" height="27" viewBox="0 0 28 27" fill="none" xmlns="http://www.w3.org/2000/svg">
<mask id="path-1-inside-1_106_2" fill="white">
<path d="M19.625 17H9.875L8 9.5H21.5L19.625 17Z"/>
<path d="M6.125 7.25H7.4375L8 9.5M8 9.5L9.875 17H19.625L21.5 9.5H8Z"/>
<path d="M9.875 20.75C10.4963 20.75 11 20.2463 11 19.625C11 19.0037 10.4963 18.5 9.875 18.5C9.25368 18.5 8.75 19.0037 8.75 19.625C8.75 20.2463 9.25368 20.75 9.875 20.75Z"/>
<path d="M19.625 20.75C20.2463 20.75 20.75 20.2463 20.75 19.625C20.75 19.0037 20.2463 18.5 19.625 18.5C19.0037 18.5 18.5 19.0037 18.5 19.625C18.5 20.2463 19.0037 20.75 19.625 20.75Z"/>
<path d="M28 13.5C28 20.9558 21.732 27 14 27C6.26801 27 0 20.9558 0 13.5C0 6.04416 6.26801 0 14 0C21.732 0 28 6.04416 28 13.5Z"/>
</mask>
<path d="M19.625 17V18H20.4058L20.5951 17.2425L19.625 17ZM9.875 17L8.90486 17.2425L9.09422 18H9.875V17ZM8 9.5V8.5H6.71922L7.02986 9.74254L8 9.5ZM21.5 9.5L22.4701 9.74254L22.7808 8.5H21.5V9.5ZM19.625 16H9.875V18H19.625V16ZM10.8451 16.7575L8.97014 9.25746L7.02986 9.74254L8.90486 17.2425L10.8451 16.7575ZM8 10.5H21.5V8.5H8V10.5ZM20.5299 9.25746L18.6549 16.7575L20.5951 17.2425L22.4701 9.74254L20.5299 9.25746ZM6.125 5.25C5.02043 5.25 4.125 6.14543 4.125 7.25C4.125 8.35457 5.02043 9.25 6.125 9.25V5.25ZM7.4375 7.25L9.37779 6.76493C9.1552 5.87459 8.35524 5.25 7.4375 5.25V7.25ZM6.125 9.25H7.4375V5.25H6.125V9.25ZM5.49721 7.73507L6.05971 9.98507L9.94029 9.01493L9.37779 6.76493L5.49721 7.73507ZM9 19.625C9 19.1418 9.39175 18.75 9.875 18.75V22.75C11.6009 22.75 13 21.3509 13 19.625H9ZM9.875 18.75C10.3582 18.75 10.75 19.1418 10.75 19.625H6.75C6.75 21.3509 8.14911 22.75 9.875 22.75V18.75ZM10.75 19.625C10.75 20.1082 10.3582 20.5 9.875 20.5V16.5C8.14911 16.5 6.75 17.8991 6.75 19.625H10.75ZM9.875 20.5C9.39175 20.5 9 20.1082 9 19.625H13C13 17.8991 11.6009 16.5 9.875 16.5V20.5ZM18.75 19.625C18.75 19.1418 19.1418 18.75 19.625 18.75V22.75C21.3509 22.75 22.75 21.3509 22.75 19.625H18.75ZM19.625 18.75C20.1082 18.75 20.5 19.1418 20.5 19.625H16.5C16.5 21.3509 17.8991 22.75 19.625 22.75V18.75ZM20.5 19.625C20.5 20.1082 20.1082 20.5 19.625 20.5V16.5C17.8991 16.5 16.5 17.8991 16.5 19.625H20.5ZM19.625 20.5C19.1418 20.5 18.75 20.1082 18.75 19.625H22.75C22.75 17.8991 21.3509 16.5 19.625 16.5V20.5ZM26 13.5C26 19.7833 20.6966 25 14 25V29C22.7674 29 30 22.1283 30 13.5H26ZM14 25C7.3034 25 2 19.7833 2 13.5H-2C-2 22.1283 5.23262 29 14 29V25ZM2 13.5C2 7.21666 7.3034 2 14 2V-2C5.23262 -2 -2 4.87165 -2 13.5H2ZM14 2C20.6966 2 26 7.21666 26 13.5H30C30 4.87165 22.7674 -2 14 -2V2Z" fill="#F5D35A" mask="url(#path-1-inside-1_106_2)"/>
</svg>
