<svg width="58" height="58" viewBox="0 0 58 58" fill="none" xmlns="http://www.w3.org/2000/svg">
<path d="M9.66725 31.4165C12.4684 31.6544 21.751 33.8332 21.7506 37.4582C21.7501 41.0833 16.7531 39.8615 14.5006 39.8748C12.5654 39.7106 7.24959 39.875 7.25 43.5C7.2504 47.125 15.7084 49.5416 24.1667 50.75C32.6251 51.9583 45.9169 51.9582 45.9169 51.9582" stroke="#F8E71C" stroke-width="4" stroke-linecap="round" stroke-linejoin="round"/>
<path d="M9.66675 24.1666L16.9167 16.9166" stroke="#F8E71C" stroke-width="4" stroke-linecap="round" stroke-linejoin="round"/>
<path d="M33.8333 7.25H45.9166L50.7499 12.0833" stroke="#F8E71C" stroke-width="4" stroke-linecap="round" stroke-linejoin="round"/>
<path d="M36.2501 16.9166L43.5001 24.1666H24.1667L16.9167 16.9166H36.2501Z" fill="#F8E71C" stroke="#F8E71C" stroke-width="4" stroke-linecap="round" stroke-linejoin="round"/>
<path d="M50.75 26.5834V19.3334" stroke="#F8E71C" stroke-width="4" stroke-linecap="round" stroke-linejoin="round"/>
<path d="M31.4167 36.25V31.4166" stroke="#F8E71C" stroke-width="4" stroke-linecap="round" stroke-linejoin="round"/>
<path d="M38.6667 41.0833V31.4166" stroke="#F8E71C" stroke-width="4" stroke-linecap="round" stroke-linejoin="round"/>
</svg>
