<svg width="22" height="50" viewBox="0 0 22 50" fill="none" xmlns="http://www.w3.org/2000/svg">
<path d="M0.902344 6.98926H9.43164V3.69141L2.36328 3.89551C2.20573 3.15072 1.9694 2.2054 1.6543 1.05957C8.97331 1.0166 14.9173 0.816081 19.4863 0.458008L20.4316 3.22949L12.5469 3.58398V6.98926H21.1406V9.86816H14.1904C16.2243 12.5036 18.7845 14.609 21.8711 16.1846C20.8398 17.2301 20.0163 18.1325 19.4004 18.8916C16.6862 17.0726 14.4017 14.7344 12.5469 11.877V20.8252H9.43164V11.8877C7.69857 14.4801 5.32812 16.8792 2.32031 19.085C1.60417 18.1969 0.859375 17.3232 0.0859375 16.4639C3.25846 14.6162 5.80436 12.4176 7.72363 9.86816H0.902344V6.98926ZM4.16797 28.8135C5.09896 30.0166 6.05859 31.3415 7.04688 32.7881C6.35938 33.1891 5.42839 33.7692 4.25391 34.5283C3.39453 32.9528 2.52799 31.542 1.6543 30.2959L4.16797 28.8135ZM18.5625 42.1123C19.4792 42.4417 20.5319 42.7712 21.7207 43.1006C21.3411 45.3708 21.026 46.7959 20.7754 47.376C20.5247 47.9561 20.1094 48.3929 19.5293 48.6865C18.9492 48.9873 18.2044 49.1377 17.2949 49.1377H11.9238C9.81836 49.1377 8.76562 47.9561 8.76562 45.5928V36.6553H16.9941V32.5947H8.37891V29.8447H20.0879V39.4053H11.8594V45.0127C11.8594 45.958 12.332 46.4307 13.2773 46.4307H16.4785C17.2018 46.4307 17.6852 46.2194 17.9287 45.7969C18.1722 45.3672 18.3835 44.139 18.5625 42.1123ZM7.71289 42.6709C7.85612 44.0316 8.02083 45.1058 8.20703 45.8936C6.07292 47.4548 4.5332 48.7152 3.58789 49.6748L2.04102 47.5479C2.35612 47.1755 2.52083 46.5882 2.53516 45.7861V38.7393H0.429688V35.8389H5.47852V44.4111C5.9082 44.1104 6.65299 43.5303 7.71289 42.6709Z" fill="#F5D35A"/>
</svg>
