<svg width="83" height="54" viewBox="0 0 83 54" fill="none" xmlns="http://www.w3.org/2000/svg">
<path d="M4.50051 27.8749C7.25335 28.1087 16.376 30.2499 16.3755 33.8124C16.375 37.375 11.4642 36.1743 9.25048 36.1874C7.3487 36.026 2.12454 36.1875 2.12494 39.75C2.12533 43.3125 10.4375 45.6875 18.75 46.875C27.0625 48.0625 40.1251 48.0624 40.1251 48.0624M4.50001 20.75L11.625 13.625M11.625 13.625L18.75 20.75H37.75L30.625 13.625H11.625ZM28.25 4.125H40.125L44.875 8.875M44.875 23.125V16M25.875 32.625V27.875M33 37.375V27.875M59.9024 8.98926H68.4316V5.69141L61.3633 5.89551C61.2057 5.15072 60.9694 4.2054 60.6543 3.05957C67.9733 3.0166 73.9173 2.81608 78.4863 2.45801L79.4316 5.22949L71.5469 5.58398V8.98926H80.1406V11.8682H73.1904C75.2243 14.5036 77.7845 16.609 80.8711 18.1846C79.8399 19.2301 79.0163 20.1325 78.4004 20.8916C75.6862 19.0726 73.4017 16.7344 71.5469 13.877V22.8252H68.4316V13.8877C66.6986 16.4801 64.3281 18.8792 61.3203 21.085C60.6042 20.1969 59.8594 19.3232 59.0859 18.4639C62.2585 16.6162 64.8044 14.4176 66.7236 11.8682H59.9024V8.98926ZM63.168 30.8135C64.099 32.0166 65.0586 33.3415 66.0469 34.7881C65.3594 35.1891 64.4284 35.7692 63.2539 36.5283C62.3945 34.9528 61.528 33.542 60.6543 32.2959L63.168 30.8135ZM77.5625 44.1123C78.4792 44.4417 79.5319 44.7712 80.7207 45.1006C80.3412 47.3708 80.026 48.7959 79.7754 49.376C79.5247 49.9561 79.1094 50.3929 78.5293 50.6865C77.9492 50.9873 77.2044 51.1377 76.2949 51.1377H70.9238C68.8184 51.1377 67.7656 49.9561 67.7656 47.5928V38.6553H75.9941V34.5947H67.3789V31.8447H79.0879V41.4053H70.8594V47.0127C70.8594 47.958 71.332 48.4307 72.2774 48.4307H75.4785C76.2018 48.4307 76.6852 48.2194 76.9287 47.7969C77.1722 47.3672 77.3835 46.139 77.5625 44.1123ZM66.7129 44.6709C66.8561 46.0316 67.0208 47.1058 67.207 47.8936C65.0729 49.4548 63.5332 50.7152 62.5879 51.6748L61.041 49.5479C61.3561 49.1755 61.5208 48.5882 61.5352 47.7861V40.7393H59.4297V37.8389H64.4785V46.4111C64.9082 46.1104 65.653 45.5303 66.7129 44.6709Z" stroke="#F5D35A" stroke-width="4" stroke-linecap="round" stroke-linejoin="round"/>
</svg>
